<?xml version="1.0" encoding="iso-8859-1"?>
<!-- Generator: Adobe Illustrator 19.0.0, SVG Export Plug-In . SVG Version: 6.00 Build 0)  -->
<svg version="1.1" id="Layer_1" xmlns="http://www.w3.org/2000/svg" xmlns:xlink="http://www.w3.org/1999/xlink" x="0px" y="0px"
	 viewBox="0 0 512.222 512.222" fill="blue" style="enable-background:new 0 0 512.222 512.222;" xml:space="preserve">
<g>
	<g>
		<path d="M495.155,239.044c-6.298,0-11.742,3.456-14.703,8.533H455.91l17.698-17.698c1.408,0.367,2.85,0.631,4.369,0.631
			c9.421,0,17.067-7.637,17.067-17.067s-7.646-17.067-17.067-17.067c-9.429,0-17.067,7.637-17.067,17.067
			c0,1.519,0.265,2.961,0.631,4.369l-29.764,29.764h-22.067v-5l14.566-14.566c3.336-3.337,3.336-8.73,0-12.066
			c-3.337-3.337-8.73-3.337-12.066,0l-17.058,17.058c-0.794,0.785-1.417,1.732-1.852,2.782c-0.435,1.041-0.657,2.15-0.657,3.26
			v8.533H353.51l9.165-9.165c1.408,0.367,2.85,0.631,4.369,0.631c9.421,0,17.067-7.637,17.067-17.067s-7.646-17.067-17.067-17.067
			c-9.429,0-17.067,7.637-17.067,17.067c0,1.519,0.264,2.961,0.631,4.369l-21.231,21.231h-22.835
			c-1.314-7.757-4.352-14.925-8.747-21.086l13.047-13.047h30.601c4.71,0,8.533-3.814,8.533-8.533s-3.823-8.533-8.533-8.533H327.91
			l26.334-26.334l6.758,6.758c0.794,0.794,1.732,1.417,2.782,1.852c1.041,0.427,2.15,0.657,3.26,0.657h17.067
			c4.71,0,8.533-3.814,8.533-8.533s-3.823-8.533-8.533-8.533h-13.534l-4.267-4.267l12.8-12.8h42.104
			c0.725,1.254,1.562,2.458,2.637,3.533c6.665,6.665,17.468,6.665,24.132,0c6.665-6.664,6.665-17.468,0-24.132
			c-6.665-6.665-17.468-6.665-24.132,0c-1.075,1.075-1.911,2.278-2.637,3.533h-25.037l26.24-26.24
			c5.683,1.502,11.972,0.094,16.427-4.361c6.665-6.664,6.665-17.468,0-24.132c-6.664-6.664-17.468-6.664-24.132,0
			c-4.454,4.454-5.862,10.743-4.361,16.427l-26.24,26.24V91.332c1.476-0.785,2.893-1.715,4.139-2.961
			c6.665-6.665,6.665-17.468,0-24.132c-6.665-6.665-17.468-6.665-24.132,0c-6.665,6.664-6.665,17.468,0,24.132
			c0.905,0.904,1.894,1.664,2.927,2.321v42.419l-12.8,12.8l-4.267-4.267v-13.534c0-4.719-3.823-8.533-8.533-8.533
			s-8.533,3.814-8.533,8.533v17.067c0,1.109,0.23,2.219,0.657,3.26c0.435,1.05,1.058,1.997,1.852,2.782l6.758,6.758l-26.334,26.334
			v-13.534c0-4.719-3.823-8.533-8.533-8.533c-4.71,0-8.533,3.814-8.533,8.533v30.601l-13.047,13.047
			c-6.161-4.395-13.329-7.432-21.086-8.747v-22.673l21.231-21.231c1.399,0.367,2.85,0.631,4.369,0.631
			c9.421,0,17.067-7.646,17.067-17.067c0-9.429-7.646-17.067-17.067-17.067c-9.429,0-17.067,7.637-17.067,17.067
			c0,1.519,0.265,2.961,0.631,4.361l-9.165,9.165v-47.821h8.533c1.109,0,2.219-0.23,3.26-0.657c1.05-0.435,1.988-1.058,2.782-1.852
			l17.058-17.058c3.336-3.337,3.336-8.73,0-12.066c-3.337-3.337-8.73-3.337-12.066,0l-14.566,14.566h-5.001V80.444l29.764-29.764
			c1.408,0.367,2.85,0.631,4.369,0.631c9.421,0,17.067-7.637,17.067-17.067s-7.646-17.067-17.067-17.067
			c-9.429,0-17.067,7.637-17.067,17.067c0,1.519,0.264,2.961,0.631,4.369l-17.698,17.698v-24.55
			c5.077-2.953,8.533-8.397,8.533-14.694C273.178,7.637,265.532,0,256.111,0c-9.429,0-17.067,7.637-17.067,17.067
			c0,6.298,3.456,11.742,8.533,14.694v24.55L229.88,38.613c0.367-1.408,0.631-2.85,0.631-4.369c0-9.429-7.646-17.067-17.067-17.067
			c-9.429,0-17.067,7.637-17.067,17.067s7.637,17.067,17.067,17.067c1.519,0,2.961-0.265,4.369-0.631l29.764,29.764v13.534h-5.001
			l-14.566-14.566c-3.336-3.337-8.73-3.337-12.066,0s-3.337,8.73,0,12.066l17.058,17.058c0.794,0.794,1.732,1.417,2.782,1.852
			c1.041,0.427,2.15,0.657,3.26,0.657h8.533v47.821l-9.165-9.165c0.367-1.399,0.631-2.842,0.631-4.361
			c0-9.429-7.646-17.067-17.067-17.067c-9.429,0-17.067,7.637-17.067,17.067c0,9.421,7.637,17.067,17.067,17.067
			c1.519,0,2.97-0.265,4.369-0.631l21.231,21.231v22.673c-7.765,1.314-14.925,4.352-21.086,8.747l-13.047-13.047v-30.601
			c0-4.719-3.823-8.533-8.533-8.533s-8.533,3.814-8.533,8.533v13.534l-26.334-26.334l6.758-6.758
			c0.794-0.785,1.417-1.732,1.852-2.782c0.427-1.041,0.657-2.15,0.657-3.26v-17.067c0-4.719-3.823-8.533-8.533-8.533
			c-4.71,0-8.533,3.814-8.533,8.533v13.534l-4.267,4.267l-12.8-12.8V91.614c5.077-2.961,8.533-8.405,8.533-14.703
			c0-9.429-7.646-17.067-17.067-17.067c-9.429,0-17.067,7.637-17.067,17.067c0,6.298,3.456,11.742,8.533,14.703v24.431l-26.24-26.24
			c1.502-5.683,0.094-11.972-4.361-16.427c-6.665-6.664-17.468-6.664-24.132,0c-6.665,6.665-6.665,17.468,0,24.132
			c4.454,4.454,10.743,5.862,16.427,4.361l26.24,26.24H91.614c-0.725-1.254-1.562-2.458-2.637-3.533
			c-6.665-6.665-17.468-6.665-24.132,0c-6.665,6.665-6.665,17.468,0,24.132c6.664,6.665,17.468,6.665,24.132,0
			c1.075-1.075,1.911-2.278,2.637-3.533h41.498l12.8,12.8l-4.267,4.267h-13.534c-4.71,0-8.533,3.814-8.533,8.533
			s3.823,8.533,8.533,8.533h17.067c1.109,0,2.219-0.23,3.26-0.657c1.05-0.435,1.988-1.058,2.782-1.852l6.758-6.758l26.334,26.334
			h-13.534c-4.71,0-8.533,3.814-8.533,8.533s3.823,8.533,8.533,8.533h30.592l13.056,13.047c-4.395,6.161-7.433,13.329-8.747,21.086
			h-22.835l-21.231-21.231c0.367-1.408,0.632-2.85,0.632-4.369c0-9.429-7.646-17.067-17.067-17.067
			c-9.429,0-17.067,7.637-17.067,17.067s7.637,17.067,17.067,17.067c1.519,0,2.961-0.265,4.369-0.631l9.165,9.165h-39.134v-8.533
			c0-1.109-0.23-2.219-0.657-3.26c-0.435-1.05-1.058-1.997-1.852-2.782l-17.058-17.058c-3.337-3.337-8.73-3.337-12.066,0
			c-3.337,3.337-3.337,8.73,0,12.066l14.566,14.566v5H80.444l-29.764-29.764c0.367-1.408,0.631-2.85,0.631-4.369
			c0-9.429-7.646-17.067-17.067-17.067c-9.429,0-17.067,7.637-17.067,17.067s7.637,17.067,17.067,17.067
			c1.519,0,2.961-0.265,4.369-0.631l17.698,17.698h-24.55c-2.953-5.077-8.397-8.533-14.694-8.533C7.637,239.044,0,246.682,0,256.111
			c0,9.429,7.637,17.067,17.067,17.067c6.298,0,11.742-3.456,14.694-8.533h24.55l-17.698,17.698
			c-1.408-0.367-2.85-0.631-4.369-0.631c-9.429,0-17.067,7.637-17.067,17.067c0,9.429,7.637,17.067,17.067,17.067
			c9.421,0,17.067-7.637,17.067-17.067c0-1.519-0.265-2.961-0.631-4.369l29.764-29.764h22.067v5l-14.566,14.566
			c-3.337,3.337-3.337,8.73,0,12.066c1.664,1.664,3.849,2.5,6.033,2.5c2.185,0,4.369-0.836,6.033-2.5l17.058-17.058
			c0.794-0.785,1.417-1.732,1.852-2.782c0.427-1.041,0.657-2.15,0.657-3.26v-8.533h39.134l-9.165,9.165
			c-1.408-0.367-2.85-0.631-4.369-0.631c-9.429,0-17.067,7.637-17.067,17.067s7.637,17.067,17.067,17.067
			c9.421,0,17.067-7.637,17.067-17.067c0-1.519-0.265-2.961-0.632-4.369l21.231-21.231h22.835
			c1.314,7.757,4.352,14.925,8.747,21.086l-13.056,13.047h-30.592c-4.71,0-8.533,3.814-8.533,8.533c0,4.719,3.823,8.533,8.533,8.533
			h13.534l-26.334,26.334l-6.758-6.758c-0.794-0.794-1.732-1.417-2.782-1.852c-1.041-0.435-2.15-0.657-3.26-0.657h-17.067
			c-4.71,0-8.533,3.814-8.533,8.533s3.823,8.533,8.533,8.533h13.534l4.267,4.267l-12.8,12.8H91.008
			c-0.725-1.254-1.562-2.458-2.637-3.533c-6.665-6.664-17.468-6.664-24.132,0c-6.665,6.665-6.665,17.468,0,24.132
			s17.468,6.665,24.132,0c1.075-1.075,1.911-2.278,2.637-3.533h25.037l-26.24,26.24c-5.683-1.502-11.972-0.094-16.427,4.361
			c-6.665,6.665-6.665,17.468,0,24.132c6.664,6.665,17.468,6.665,24.132,0c4.454-4.454,5.862-10.743,4.361-16.427l26.24-26.24
			v24.713c-1.476,0.785-2.901,1.715-4.139,2.961c-6.665,6.665-6.665,17.468,0,24.132c6.665,6.664,17.468,6.664,24.132,0
			c6.665-6.665,6.665-17.468,0-24.132c-0.905-0.904-1.894-1.664-2.927-2.321V379.11l12.8-12.8l4.267,4.267v13.534
			c0,4.719,3.823,8.533,8.533,8.533c4.71,0,8.533-3.814,8.533-8.533v-17.067c0-1.109-0.23-2.219-0.657-3.26
			c-0.435-1.05-1.058-1.997-1.852-2.782l-6.758-6.758l26.334-26.334v13.534c0,4.719,3.823,8.533,8.533,8.533
			s8.533-3.814,8.533-8.533v-30.601l13.047-13.047c6.161,4.395,13.32,7.433,21.086,8.747v22.835l-21.231,21.231
			c-1.408-0.367-2.85-0.631-4.369-0.631c-9.429,0-17.067,7.637-17.067,17.067c0,9.429,7.637,17.067,17.067,17.067
			c9.421,0,17.067-7.637,17.067-17.067c0-1.519-0.265-2.961-0.631-4.369l9.165-9.165v47.667h-8.533c-1.109,0-2.219,0.222-3.26,0.657
			c-1.05,0.435-1.988,1.058-2.782,1.852l-17.058,17.058c-3.337,3.336-3.337,8.73,0,12.066c1.664,1.664,3.849,2.5,6.033,2.5
			c2.185,0,4.369-0.836,6.033-2.5l14.566-14.566h5.001v13.534l-29.764,29.764c-1.408-0.367-2.85-0.631-4.369-0.631
			c-9.429,0-17.067,7.637-17.067,17.067c0,9.429,7.637,17.067,17.067,17.067c9.421,0,17.067-7.637,17.067-17.067
			c0-1.519-0.265-2.961-0.631-4.369l17.698-17.698v24.542c-5.077,2.961-8.533,8.405-8.533,14.703
			c0,9.429,7.637,17.067,17.067,17.067c9.421,0,17.067-7.637,17.067-17.067c0-6.298-3.456-11.742-8.533-14.703V455.91l17.698,17.698
			c-0.367,1.408-0.631,2.85-0.631,4.369c0,9.429,7.637,17.067,17.067,17.067c9.421,0,17.067-7.637,17.067-17.067
			c0-9.429-7.646-17.067-17.067-17.067c-1.519,0-2.961,0.265-4.369,0.631l-29.764-29.764v-13.534h5.001l14.566,14.566
			c1.664,1.664,3.849,2.5,6.033,2.5c2.185,0,4.369-0.836,6.033-2.5c3.336-3.337,3.336-8.73,0-12.066l-17.058-17.058
			c-0.794-0.794-1.732-1.417-2.782-1.852c-1.041-0.435-2.15-0.657-3.26-0.657h-8.533V353.51l9.165,9.165
			c-0.367,1.408-0.631,2.85-0.631,4.369c0,9.429,7.637,17.067,17.067,17.067c9.421,0,17.067-7.637,17.067-17.067
			c0-9.429-7.646-17.067-17.067-17.067c-1.519,0-2.961,0.265-4.369,0.631l-21.231-21.231v-22.835
			c7.757-1.314,14.925-4.352,21.086-8.747l13.047,13.047v30.601c0,4.719,3.823,8.533,8.533,8.533c4.71,0,8.533-3.814,8.533-8.533
			V327.91l26.334,26.334l-6.758,6.758c-0.794,0.785-1.417,1.732-1.852,2.782c-0.435,1.041-0.657,2.15-0.657,3.26v17.067
			c0,4.719,3.823,8.533,8.533,8.533s8.533-3.814,8.533-8.533v-13.534l4.267-4.267l12.8,12.8v41.498
			c-5.077,2.961-8.533,8.405-8.533,14.703c0,9.429,7.637,17.067,17.067,17.067c9.421,0,17.067-7.637,17.067-17.067
			c0-6.298-3.456-11.742-8.533-14.703v-24.431l26.24,26.24c-1.502,5.683-0.094,11.972,4.361,16.427
			c6.665,6.665,17.468,6.665,24.132,0c6.665-6.665,6.665-17.468,0-24.132c-4.454-4.454-10.743-5.862-16.427-4.361l-26.24-26.24
			h24.431c0.725,1.254,1.562,2.458,2.637,3.533c6.665,6.665,17.468,6.665,24.132,0c6.665-6.665,6.665-17.468,0-24.132
			c-6.664-6.664-17.468-6.664-24.132,0c-1.075,1.075-1.911,2.278-2.637,3.533H379.11l-12.8-12.8l4.267-4.267h13.534
			c4.71,0,8.533-3.814,8.533-8.533s-3.823-8.533-8.533-8.533h-17.067c-1.109,0-2.219,0.222-3.26,0.657
			c-1.05,0.435-1.988,1.058-2.782,1.852l-6.758,6.758l-26.334-26.334h13.534c4.71,0,8.533-3.814,8.533-8.533
			c0-4.719-3.823-8.533-8.533-8.533h-30.601l-13.047-13.047c4.395-6.161,7.433-13.329,8.747-21.086h22.835l21.231,21.231
			c-0.367,1.408-0.631,2.85-0.631,4.369c0,9.429,7.637,17.067,17.067,17.067c9.421,0,17.067-7.637,17.067-17.067
			s-7.646-17.067-17.067-17.067c-1.519,0-2.961,0.265-4.369,0.631l-9.165-9.165h39.134v8.533c0,1.109,0.23,2.219,0.657,3.26
			c0.435,1.05,1.058,1.997,1.852,2.782l17.058,17.058c1.664,1.664,3.849,2.5,6.033,2.5c2.185,0,4.369-0.836,6.033-2.5
			c3.336-3.337,3.336-8.73,0-12.066l-14.566-14.566v-5h22.067l29.764,29.764c-0.367,1.408-0.631,2.85-0.631,4.369
			c0,9.429,7.637,17.067,17.067,17.067c9.421,0,17.067-7.637,17.067-17.067c0-9.429-7.646-17.067-17.067-17.067
			c-1.519,0-2.961,0.265-4.369,0.631l-17.698-17.698h24.542c2.961,5.077,8.405,8.533,14.703,8.533
			c9.429,0,17.067-7.637,17.067-17.067C512.222,246.682,504.585,239.044,495.155,239.044z"/>
	</g>
</g>
<g>
</g>
<g>
</g>
<g>
</g>
<g>
</g>
<g>
</g>
<g>
</g>
<g>
</g>
<g>
</g>
<g>
</g>
<g>
</g>
<g>
</g>
<g>
</g>
<g>
</g>
<g>
</g>
<g>
</g>
</svg>
